Coordinates
version=1
nRows=19
nColumns=63
inDegrees=yes

Units are S.I. units (second, meters, Newtons, ...)
If the header above contains a line with 'inDegrees', this indicates whether rotational values are in degrees (yes) or radians (no).

endheader
time	pelvis_tilt	pelvis_list	pelvis_rotation	pelvis_tx	pelvis_ty	pelvis_tz	hip_flexion_r	hip_adduction_r	hip_rotation_r	knee_angle_r	knee_angle_r_beta	ankle_angle_r	subtalar_angle_r	mtp_angle_r	hip_flexion_l	hip_adduction_l	hip_rotation_l	knee_angle_l	knee_angle_l_beta	ankle_angle_l	subtalar_angle_l	mtp_angle_l	L5_S1_Flex_Ext	L5_S1_Lat_Bending	L5_S1_axial_rotation	L4_L5_Flex_Ext	L4_L5_Lat_Bending	L4_L5_axial_rotation	L3_L4_Flex_Ext	L3_L4_Lat_Bending	L3_L4_axial_rotation	L2_L3_Flex_Ext	L2_L3_Lat_Bending	L2_L3_axial_rotation	L1_L2_Flex_Ext	L1_L2_Lat_Bending	L1_L2_axial_rotation	L1_T12_Flex_Ext	L1_T12_Lat_Bending	L1_T12_axial_rotation	Abs_r3	Abs_r2	Abs_r1	Abs_t1	Abs_t2	neck_flexion	neck_bending	neck_rotation	arm_flex_r	arm_add_r	arm_rot_r	elbow_flex_r	pro_sup_r	wrist_flex_r	wrist_dev_r	arm_flex_l	arm_add_l	arm_rot_l	elbow_flex_l	pro_sup_l	wrist_flex_l	wrist_dev_l
3.300000	-0.479615	-29.410359	95.359240	0.158818	0.632327	0.846599	40.099965	-9.454870	-10.443665	18.986285	0.331373	33.912661	17.544125	0.000000	40.542378	5.423910	1.578420	19.004501	0.331691	26.271439	-3.474274	0.000000	0.692297	1.442072	-1.086676	1.285665	1.917956	-1.154593	1.137375	3.506253	-1.154593	0.791226	3.506253	-0.950842	0.642867	2.940673	-0.882924	0.395578	2.233769	-0.815007	4.945008	16.313005	-6.043767	0.000000	0.000000	28.451190	12.049515	34.814902	30.893504	-16.839615	144.374995	4.224641	4.936189	-0.510834	-3.047418	28.357424	9.622958	158.983602	0.686695	3.783502	-10.862383	-4.007422
3.316667	-1.323224	-28.992547	94.325334	0.159326	0.634086	0.845277	39.595943	-9.643131	-9.515022	18.694223	0.326276	33.849960	17.688369	0.000000	39.423290	5.804137	1.867101	18.044342	0.314933	25.564244	-4.836499	0.000000	0.726773	1.332714	-1.015514	1.349690	1.772510	-1.078984	1.194015	3.240361	-1.078984	0.830628	3.240361	-0.888575	0.674881	2.717670	-0.825105	0.415278	2.064374	-0.761636	5.191265	15.075928	-5.647985	0.000000	0.000000	28.455947	12.610777	35.340777	30.137393	-16.255688	143.416263	3.805693	4.559659	-0.510188	-3.340439	28.101695	9.777570	161.291072	0.608788	3.826037	-11.426538	-4.316067
3.333333	-2.076246	-28.454230	93.328648	0.159969	0.635811	0.843909	38.963841	-9.749005	-8.575209	18.374292	0.320692	33.802983	17.765806	0.000000	38.166624	6.105092	2.198116	17.030031	0.297230	24.876919	-6.171159	0.000000	0.757565	1.223432	-0.928310	1.406874	1.627165	-0.986329	1.244603	2.974654	-0.986329	0.865821	2.974654	-0.812271	0.703475	2.494823	-0.754252	0.432873	1.895097	-0.696232	5.411210	13.839712	-5.162980	0.000000	0.000000	28.460522	12.906416	35.196637	29.299413	-15.712429	141.838681	3.490264	4.205480	-0.515627	-3.637301	27.812500	9.897099	163.434063	0.538621	3.821284	-11.925368	-4.711962
3.350000	-2.690120	-27.786588	92.416249	0.160711	0.637522	0.842558	38.209276	-9.764816	-7.740556	18.065142	0.315296	33.792303	17.868207	0.000000	36.783530	6.302733	2.522696	15.983931	0.278972	24.259577	-7.351364	0.000000	0.781540	1.119360	-0.835142	1.451397	1.488749	-0.887339	1.283991	2.721612	-0.887339	0.893222	2.721612	-0.730749	0.725738	2.282599	-0.678553	0.446572	1.733888	-0.626357	5.582459	12.662423	-4.644810	0.000000	0.000000	28.464080	13.014121	34.531996	28.413124	-15.200163	139.844536	3.247080	3.889527	-0.534657	-3.921132	27.506141	9.966632	165.249533	0.487478	3.758656	-12.297391	-5.194172
3.366667	-3.063601	-26.948644	91.698796	0.161462	0.639328	0.841218	37.241424	-9.632709	-7.052920	17.685896	0.308677	33.760278	17.902943	0.000000	35.255193	6.357955	2.968202	14.918922	0.260384	23.697016	-8.416283	0.000000	0.791314	1.031637	-0.754111	1.469549	1.372077	-0.801242	1.300049	2.508321	-0.801242	0.904392	2.508321	-0.659847	0.734814	2.103713	-0.612715	0.452157	1.598005	-0.565583	5.652275	11.670078	-4.194137	0.000000	0.000000	28.465723	12.922234	33.422678	27.573263	-14.716771	138.081197	3.096427	3.525905	-0.544948	-4.245079	27.197323	9.984834	166.523531	0.467428	3.667449	-12.503917	-5.793068
3.383333	-3.228152	-25.955444	91.151082	0.162265	0.641255	0.839819	36.059992	-9.361343	-6.479048	17.231875	0.300753	33.705133	17.858294	0.000000	33.574667	6.265405	3.462697	13.827245	0.241331	23.202836	-9.295947	0.000000	0.787082	0.956792	-0.684345	1.461690	1.272534	-0.727116	1.293097	2.326345	-0.727116	0.899556	2.326345	-0.598802	0.730884	1.951091	-0.556030	0.449739	1.482071	-0.513259	5.622049	10.823426	-3.806120	0.000000	0.000000	28.465434	12.597514	31.862111	26.764472	-14.274738	136.210542	3.092364	3.244307	-0.587108	-4.550040	26.883746	9.934096	167.302296	0.479168	3.538534	-12.535974	-6.482888
3.400000	-3.212031	-24.855974	90.757937	0.163112	0.643294	0.838361	34.730467	-9.000910	-6.327730	16.748174	0.292311	33.691857	18.185620	0.000000	31.793527	6.046955	3.980817	12.727789	0.222142	22.781193	-9.980852	0.000000	0.773469	0.892674	-0.628403	1.436409	1.187256	-0.667678	1.270732	2.170446	-0.667678	0.883998	2.170446	-0.549852	0.718243	1.820340	-0.510577	0.441960	1.382751	-0.471302	5.524811	10.098101	-3.494987	0.000000	0.000000	28.463809	12.146904	29.984616	25.994125	-13.879245	134.254280	3.266691	3.113989	-0.675807	-4.833385	26.565512	9.806638	167.714153	0.513101	3.354220	-12.432806	-7.213614
3.416667	-3.061039	-23.670809	90.496956	0.164030	0.645455	0.836698	33.214130	-8.531088	-6.016875	16.147206	0.281822	33.583812	18.130272	0.000000	29.893909	5.733348	4.600892	11.582264	0.202149	22.390997	-10.618454	0.000000	0.753230	0.834659	-0.588741	1.398823	1.110097	-0.625537	1.237481	2.029390	-0.625537	0.860866	2.029390	-0.515148	0.699449	1.702037	-0.478352	0.430395	1.292887	-0.441556	5.380245	9.441832	-3.274399	0.000000	0.000000	28.462149	11.550948	27.753474	25.237668	-13.512554	132.510901	3.578422	3.033630	-0.810932	-5.106363	26.222737	9.593206	167.854519	0.550671	3.127294	-12.194973	-7.937878
3.433333	-2.838128	-22.477188	90.287770	0.165065	0.647671	0.834902	31.658987	-7.999650	-5.737441	15.541319	0.271247	33.457724	18.042934	0.000000	27.973492	5.360732	5.318675	10.435332	0.182131	22.006323	-11.329339	0.000000	0.736292	0.778187	-0.551881	1.367367	1.034989	-0.586374	1.209654	1.892084	-0.586374	0.841508	1.892084	-0.482896	0.683721	1.586879	-0.448404	0.420717	1.205412	-0.413911	5.259258	8.803008	-3.069398	0.000000	0.000000	28.460600	10.745367	25.204728	24.464384	-13.198405	130.674524	4.056747	2.993315	-0.998187	-5.305406	25.871310	9.309388	168.090212	0.585968	2.899082	-11.905509	-8.574378
3.450000	-2.567880	-21.276513	90.130053	0.166215	0.649965	0.832951	30.039652	-7.410954	-5.191838	14.878155	0.259673	33.211949	17.516929	0.000000	26.027148	4.940435	6.070604	9.272904	0.161843	21.617065	-12.027207	0.000000	0.721642	0.721831	-0.525116	1.340161	0.960036	-0.557935	1.185586	1.755061	-0.557935	0.824765	1.755061	-0.459476	0.670117	1.471959	-0.426657	0.412346	1.118117	-0.393837	5.154616	8.165502	-2.920536	0.000000	0.000000	28.459947	9.883876	22.528512	23.677838	-12.917137	128.847126	4.644523	2.958419	-1.229778	-5.489076	25.512859	8.951803	168.392058	0.619209	2.698279	-11.544245	-9.081395
3.466667	-2.276482	-20.080046	90.014075	0.167470	0.652327	0.830893	28.389980	-6.792211	-4.408191	14.194744	0.247745	32.875086	16.612286	0.000000	24.089086	4.494539	6.850256	8.135585	0.141993	21.219413	-12.724219	0.000000	0.710729	0.662866	-0.506724	1.319896	0.881612	-0.538395	1.167657	1.611693	-0.538395	0.812293	1.611693	-0.443384	0.659983	1.351716	-0.411714	0.406111	1.026780	-0.380043	5.076670	7.498473	-2.818249	0.000000	0.000000	28.460670	8.934331	19.615968	22.863374	-12.678068	126.708337	5.358801	2.948740	-1.474719	-5.704429	25.152583	8.527044	168.646849	0.657091	2.610376	-11.128328	-9.443045
3.483333	-1.895198	-18.902410	89.991164	0.168782	0.654748	0.828848	26.716492	-6.106539	-3.420380	13.479099	0.235255	32.418153	15.285674	0.000000	22.221337	3.978593	7.614741	7.097331	0.123872	20.845852	-13.313192	0.000000	0.703423	0.610748	-0.509364	1.306327	0.812294	-0.541200	1.155653	1.484972	-0.541200	0.803942	1.484972	-0.445694	0.653199	1.245437	-0.413858	0.401936	0.946048	-0.382023	5.024479	6.908899	-2.832931	0.000000	0.000000	28.462922	8.018747	16.721198	22.070760	-12.473534	124.392257	6.159225	3.010754	-1.744754	-6.007099	24.809497	8.047533	168.840355	0.692785	2.596324	-10.627428	-9.647018
3.500000	-1.526446	-17.716117	90.011435	0.170100	0.657257	0.826896	25.023739	-5.445460	-2.308449	12.773590	0.222941	31.913441	13.739003	0.000000	20.382672	3.480397	8.334115	6.130497	0.106997	20.474524	-13.812922	0.000000	0.690673	0.557191	-0.532975	1.282649	0.741063	-0.566286	1.134706	1.354753	-0.566286	0.789370	1.354753	-0.466353	0.641359	1.136223	-0.433042	0.394650	0.863088	-0.399731	4.933407	6.303051	-2.964249	0.000000	0.000000	28.465826	7.282447	14.067980	21.307284	-12.231596	122.573198	6.844986	3.028305	-2.047002	-6.439053	24.512731	7.494114	169.197981	0.714188	2.608782	-10.092331	-9.691033
3.516667	-1.095726	-16.589063	90.110795	0.171412	0.659773	0.825108	23.380947	-4.740571	-0.991630	12.077264	0.210788	31.290875	11.772955	0.000000	18.667582	2.938553	9.037507	5.265118	0.091894	20.092005	-14.245091	0.000000	0.681973	0.510431	-0.579698	1.266493	0.678873	-0.615929	1.120414	1.241062	-0.615929	0.779427	1.241062	-0.507236	0.633280	1.040871	-0.471005	0.389680	0.790658	-0.434774	4.871268	5.774099	-3.224108	0.000000	0.000000	28.468783	6.638132	11.524868	20.594605	-11.986037	120.901663	7.504768	3.050454	-2.302544	-7.007647	24.252057	6.883738	169.700874	0.729139	2.599782	-9.575743	-9.594668
3.533333	-0.649166	-15.505573	90.285428	0.172661	0.662295	0.823525	21.776428	-4.058173	0.292898	11.392473	0.198836	30.635896	9.742008	0.000000	17.078626	2.398967	9.633140	4.537868	0.079201	19.765268	-14.469297	0.000000	0.669651	0.467897	-0.654599	1.243610	0.622303	-0.695511	1.100170	1.137644	-0.695511	0.765345	1.137644	-0.572774	0.621838	0.954135	-0.531862	0.382639	0.724772	-0.490949	4.783253	5.292941	-3.640683	0.000000	0.000000	28.470081	6.276340	9.450897	19.945417	-11.690039	120.087565	7.963289	3.053901	-2.600924	-7.653473	24.022153	6.201371	170.387216	0.708209	2.575174	-9.088833	-9.396422
3.550000	-0.209582	-14.489840	90.514439	0.173836	0.664764	0.822167	20.242879	-3.418386	1.497439	10.722099	0.187136	29.968932	7.745043	0.000000	15.644303	1.878879	10.086767	3.952340	0.068981	19.512476	-14.466353	0.000000	0.654072	0.428780	-0.755895	1.214678	0.570278	-0.803138	1.074575	1.042536	-0.803138	0.747539	1.042536	-0.661408	0.607371	0.874368	-0.614165	0.373737	0.664180	-0.566921	4.671973	4.850446	-4.204061	0.000000	0.000000	28.467967	6.250438	7.994704	19.370542	-11.342230	120.187445	8.209935	3.052627	-2.943387	-8.330284	23.783720	5.445377	171.137807	0.624785	2.516858	-8.623304	-9.143458
3.566667	0.150764	-13.562907	90.706937	0.174954	0.667085	0.821040	18.845657	-2.860059	2.614385	10.111044	0.176471	29.341816	5.919377	0.000000	14.374647	1.425495	10.385906	3.483559	0.060800	19.331400	-14.335442	0.000000	0.636205	0.387554	-0.870670	1.181496	0.515447	-0.925087	1.045221	0.942299	-0.925087	0.727118	0.942299	-0.761837	0.590780	0.790300	-0.707420	0.363527	0.600321	-0.653003	4.544347	4.384089	-4.842408	0.000000	0.000000	28.460998	6.569144	7.241803	18.867681	-10.940559	121.323046	8.238946	3.023514	-3.331994	-8.983985	23.507312	4.602643	171.528051	0.533565	2.457251	-8.183872	-8.921947
3.583333	0.474471	-12.749960	90.917526	0.175926	0.669155	0.820161	17.606207	-2.383626	3.502251	9.570773	0.167041	28.797264	4.384359	0.000000	13.331966	1.021330	10.485231	3.202215	0.055889	19.316975	-13.942804	0.000000	0.620341	0.349397	-0.999512	1.152034	0.464698	-1.061982	1.019157	0.849524	-1.061982	0.708987	0.849524	-0.874573	0.576048	0.712490	-0.812104	0.354463	0.541216	-0.749634	4.431030	3.952449	-5.558986	0.000000	0.000000	28.449067	7.162622	7.168950	18.427713	-10.527174	123.380968	8.072662	2.984595	-3.709083	-9.590286	23.185449	3.681003	171.170340	0.542318	2.403311	-7.788667	-8.771462
3.600000	0.666787	-12.023048	91.012789	0.176853	0.670941	0.819477	16.518857	-2.021740	4.263527	9.088379	0.158622	28.345198	3.197090	0.000000	12.425807	0.725803	10.445421	2.982416	0.052053	19.386009	-13.545905	0.000000	0.604385	0.304488	-1.109845	1.122403	0.404969	-1.179210	0.992944	0.740333	-1.179210	0.690751	0.740333	-0.971114	0.561232	0.620912	-0.901749	0.345345	0.471652	-0.832384	4.317060	3.444432	-6.172625	0.000000	0.000000	28.432662	7.919995	7.587666	18.001594	-10.115756	126.075470	7.734054	2.920797	-4.026138	-10.071397	22.809123	2.680923	170.158640	0.675813	2.323159	-7.444552	-8.737813
